M48
; DRILL file KiCad 10.0.3 date 2026-07-08T09:22:54
; FORMAT={-:-/ absolute / metric / decimal}
; #@! TF.CreationDate,2026-07-08T09:22:54+02:00
; #@! TF.GenerationSoftware,Kicad,Pcbnew,10.0.3
; #@! TF.FileFunction,Plated,1,2,PTH
FMAT,2
METRIC
; #@! TA.AperFunction,Plated,PTH,ComponentDrill
T1C1.000
; #@! TA.AperFunction,Plated,PTH,ComponentDrill
T2C4.300
%
G90
G05
T1
X72.957Y-121.8
X72.957Y-124.34
X72.977Y-60.84
X72.977Y-63.38
X75.497Y-121.8
X75.497Y-124.34
X75.517Y-60.84
X75.517Y-63.38
X78.037Y-121.8
X78.037Y-124.34
X78.057Y-60.84
X78.057Y-63.38
X80.577Y-121.8
X80.577Y-124.34
X80.597Y-60.84
X80.597Y-63.38
X83.117Y-121.8
X83.117Y-124.34
X83.137Y-60.84
X83.137Y-63.38
X85.657Y-121.8
X85.657Y-124.34
X85.677Y-60.84
X85.677Y-63.38
X88.197Y-121.8
X88.197Y-124.34
X88.217Y-60.84
X88.217Y-63.38
X90.737Y-121.8
X90.737Y-124.34
X90.757Y-60.84
X90.757Y-63.38
X93.277Y-121.8
X93.277Y-124.34
X93.297Y-60.84
X93.297Y-63.38
X95.817Y-121.8
X95.817Y-124.34
X95.837Y-60.84
X95.837Y-63.38
X98.357Y-121.8
X98.357Y-124.34
X98.377Y-60.84
X98.377Y-63.38
X100.897Y-121.8
X100.897Y-124.34
X100.917Y-60.84
X100.917Y-63.38
X103.437Y-121.8
X103.437Y-124.34
X103.457Y-60.84
X103.457Y-63.38
X105.977Y-121.8
X105.977Y-124.34
X105.997Y-60.84
X105.997Y-63.38
X108.517Y-121.8
X108.517Y-124.34
X108.537Y-60.84
X108.537Y-63.38
X111.057Y-121.8
X111.057Y-124.34
X111.077Y-60.84
X111.077Y-63.38
X113.597Y-121.8
X113.597Y-124.34
X113.617Y-60.84
X113.617Y-63.38
X116.137Y-121.8
X116.137Y-124.34
X116.157Y-60.84
X116.157Y-63.38
X118.677Y-121.8
X118.677Y-124.34
X118.697Y-60.84
X118.697Y-63.38
X121.217Y-121.8
X121.217Y-124.34
X121.237Y-60.84
X121.237Y-63.38
X123.757Y-121.8
X123.757Y-124.34
X123.777Y-60.84
X123.777Y-63.38
X126.297Y-121.8
X126.297Y-124.34
X126.317Y-60.84
X126.317Y-63.38
X128.837Y-121.8
X128.837Y-124.34
X128.857Y-60.84
X128.857Y-63.38
X131.377Y-121.8
X131.377Y-124.34
X131.397Y-60.84
X131.397Y-63.38
X133.917Y-121.8
X133.917Y-124.34
X133.937Y-60.84
X133.937Y-63.38
X136.457Y-121.8
X136.457Y-124.34
X136.477Y-60.84
X136.477Y-63.38
X138.997Y-121.8
X138.997Y-124.34
X139.017Y-60.84
X139.017Y-63.38
X141.537Y-121.8
X141.537Y-124.34
X141.557Y-60.84
X141.557Y-63.38
X144.077Y-121.8
X144.077Y-124.34
X144.097Y-60.84
X144.097Y-63.38
X146.617Y-121.8
X146.617Y-124.34
X146.637Y-60.84
X146.637Y-63.38
X149.157Y-121.8
X149.157Y-124.34
X149.177Y-60.84
X149.177Y-63.38
X151.697Y-121.8
X151.697Y-124.34
X151.717Y-60.84
X151.717Y-63.38
X154.237Y-121.8
X154.237Y-124.34
X154.257Y-60.84
X154.257Y-63.38
X156.777Y-121.8
X156.777Y-124.34
X156.797Y-60.84
X156.797Y-63.38
X159.317Y-121.8
X159.317Y-124.34
X159.337Y-60.84
X159.337Y-63.38
X161.857Y-121.8
X161.857Y-124.34
X161.877Y-60.84
X161.877Y-63.38
X187.519Y-73.3
X187.519Y-76.3
X187.519Y-108.1
X187.519Y-111.1
X190.519Y-73.3
X190.519Y-76.3
X190.519Y-108.1
X190.519Y-111.1
X193.519Y-73.3
X193.519Y-76.3
X193.519Y-108.1
X193.519Y-111.1
X196.519Y-73.3
X196.519Y-76.3
X196.519Y-108.1
X196.519Y-111.1
X199.519Y-73.3
X199.519Y-76.3
X199.519Y-108.1
X199.519Y-111.1
X202.519Y-73.3
X202.519Y-76.3
X202.519Y-108.1
X202.519Y-111.1
X205.519Y-73.3
X205.519Y-76.3
X205.519Y-108.1
X205.519Y-111.1
X208.519Y-73.3
X208.519Y-76.3
X208.519Y-108.1
X208.519Y-111.1
X211.519Y-73.3
X211.519Y-76.3
X211.519Y-108.1
X211.519Y-111.1
X214.519Y-73.3
X214.519Y-76.3
X214.519Y-108.1
X214.519Y-111.1
X217.519Y-73.3
X217.519Y-76.3
X217.519Y-108.1
X217.519Y-111.1
X220.519Y-73.3
X220.519Y-76.3
X220.519Y-108.1
X220.519Y-111.1
X223.519Y-73.3
X223.519Y-76.3
X223.519Y-108.1
X223.519Y-111.1
X226.519Y-73.3
X226.519Y-76.3
X226.519Y-108.1
X226.519Y-111.1
T2
X71.0Y-134.5
X71.0Y-144.75
X71.5Y-38.0
X71.5Y-48.0
X81.0Y-144.75
X81.5Y-38.0
X91.0Y-144.75
X91.5Y-38.0
X101.0Y-144.75
X101.5Y-38.0
X111.0Y-144.75
X111.5Y-38.0
X121.0Y-144.75
X121.5Y-38.0
X131.0Y-144.75
X131.5Y-38.0
M30
