<?xml version="1.0" standalone="no"?>
 <!DOCTYPE svg PUBLIC "-//W3C//DTD SVG 1.1//EN" 
 "http://www.w3.org/Graphics/SVG/1.1/DTD/svg11.dtd"> 
<svg
  xmlns:svg="http://www.w3.org/2000/svg"
  xmlns="http://www.w3.org/2000/svg"
  xmlns:xlink="http://www.w3.org/1999/xlink"
  xmlns:inkscape="http://www.inkscape.org/namespaces/inkscape"
  version="1.1"
  width="297.0022mm" height="210.0072mm" viewBox="0.0000 0.0000 297.0022 210.0072">
<title>SVG Image created as Loom_Tester_PCB-F_Cu.svg date 2026-07-10T13:31:22 </title>
  <desc>Image generated by PCBNEW </desc>
<g style="fill:#000000; fill-opacity:1.0000;stroke:#000000; stroke-opacity:1.0000;
stroke-linecap:round; stroke-linejoin:round;"
 transform="translate(0 0) scale(1 1)">
</g>
<g style="fill:#000000; fill-opacity:1.0000; stroke:none;">
<circle cx="183.7522" cy="38.0000" r="3.7500" /> 
<circle cx="223.7522" cy="38.0000" r="3.7500" /> 
<circle cx="174.2522" cy="144.7500" r="3.7500" /> 
<circle cx="224.2522" cy="144.7500" r="3.7500" /> 
<circle cx="184.2522" cy="144.7500" r="3.7500" /> 
<circle cx="204.2522" cy="144.7500" r="3.7500" /> 
<circle cx="223.7522" cy="48.0000" r="3.7500" /> 
<circle cx="68.7333" cy="76.3000" r="0.8500" /> 
<circle cx="68.7333" cy="73.3000" r="0.8500" /> 
<circle cx="71.7333" cy="76.3000" r="0.8500" /> 
<circle cx="71.7333" cy="73.3000" r="0.8500" /> 
<circle cx="74.7333" cy="76.3000" r="0.8500" /> 
<circle cx="74.7333" cy="73.3000" r="0.8500" /> 
<circle cx="77.7333" cy="76.3000" r="0.8500" /> 
<circle cx="77.7333" cy="73.3000" r="0.8500" /> 
<circle cx="80.7333" cy="76.3000" r="0.8500" /> 
<circle cx="80.7333" cy="73.3000" r="0.8500" /> 
<circle cx="83.7333" cy="76.3000" r="0.8500" /> 
<circle cx="83.7333" cy="73.3000" r="0.8500" /> 
<circle cx="86.7333" cy="76.3000" r="0.8500" /> 
<circle cx="86.7333" cy="73.3000" r="0.8500" /> 
<circle cx="89.7333" cy="76.3000" r="0.8500" /> 
<circle cx="89.7333" cy="73.3000" r="0.8500" /> 
<circle cx="92.7333" cy="76.3000" r="0.8500" /> 
<circle cx="92.7333" cy="73.3000" r="0.8500" /> 
<circle cx="95.7333" cy="76.3000" r="0.8500" /> 
<circle cx="95.7333" cy="73.3000" r="0.8500" /> 
<circle cx="98.7333" cy="76.3000" r="0.8500" /> 
<circle cx="98.7333" cy="73.3000" r="0.8500" /> 
<circle cx="101.7333" cy="76.3000" r="0.8500" /> 
<circle cx="101.7333" cy="73.3000" r="0.8500" /> 
<circle cx="104.7333" cy="76.3000" r="0.8500" /> 
<circle cx="104.7333" cy="73.3000" r="0.8500" /> 
<circle cx="107.7333" cy="76.3000" r="0.8500" /> 
<path style="fill:#000000; fill-opacity:1.0000; stroke:none;fill-rule:evenodd;"
d="M 106.8833,74.1500
108.5833,74.1500
108.5833,72.4500
106.8833,72.4500
Z" /> 
<circle cx="224.2522" cy="134.5000" r="3.7500" /> 
<circle cx="213.7522" cy="38.0000" r="3.7500" /> 
<circle cx="163.7522" cy="38.0000" r="3.7500" /> 
<circle cx="203.7522" cy="38.0000" r="3.7500" /> 
<circle cx="214.2522" cy="144.7500" r="3.7500" /> 
<circle cx="164.2522" cy="144.7500" r="3.7500" /> 
<circle cx="193.7522" cy="38.0000" r="3.7500" /> 
<circle cx="194.2522" cy="144.7500" r="3.7500" /> 
<circle cx="133.3753" cy="60.8400" r="0.7540" /> 
<circle cx="133.3753" cy="63.3800" r="0.7540" /> 
<circle cx="135.9153" cy="60.8400" r="0.7540" /> 
<circle cx="135.9153" cy="63.3800" r="0.7540" /> 
<circle cx="138.4553" cy="60.8400" r="0.7540" /> 
<circle cx="138.4553" cy="63.3800" r="0.7540" /> 
<circle cx="140.9953" cy="60.8400" r="0.7540" /> 
<circle cx="140.9953" cy="63.3800" r="0.7540" /> 
<circle cx="143.5353" cy="60.8400" r="0.7540" /> 
<circle cx="143.5353" cy="63.3800" r="0.7540" /> 
<circle cx="146.0753" cy="60.8400" r="0.7540" /> 
<circle cx="146.0753" cy="63.3800" r="0.7540" /> 
<circle cx="148.6153" cy="60.8400" r="0.7540" /> 
<circle cx="148.6153" cy="63.3800" r="0.7540" /> 
<circle cx="151.1553" cy="60.8400" r="0.7540" /> 
<circle cx="151.1553" cy="63.3800" r="0.7540" /> 
<circle cx="153.6953" cy="60.8400" r="0.7540" /> 
<circle cx="153.6953" cy="63.3800" r="0.7540" /> 
<circle cx="156.2353" cy="60.8400" r="0.7540" /> 
<circle cx="156.2353" cy="63.3800" r="0.7540" /> 
<circle cx="158.7753" cy="60.8400" r="0.7540" /> 
<circle cx="158.7753" cy="63.3800" r="0.7540" /> 
<circle cx="161.3153" cy="60.8400" r="0.7540" /> 
<circle cx="161.3153" cy="63.3800" r="0.7540" /> 
<circle cx="163.8553" cy="60.8400" r="0.7540" /> 
<circle cx="163.8553" cy="63.3800" r="0.7540" /> 
<circle cx="166.3953" cy="60.8400" r="0.7540" /> 
<circle cx="166.3953" cy="63.3800" r="0.7540" /> 
<circle cx="168.9353" cy="60.8400" r="0.7540" /> 
<circle cx="168.9353" cy="63.3800" r="0.7540" /> 
<circle cx="171.4753" cy="60.8400" r="0.7540" /> 
<circle cx="171.4753" cy="63.3800" r="0.7540" /> 
<circle cx="174.0153" cy="60.8400" r="0.7540" /> 
<circle cx="174.0153" cy="63.3800" r="0.7540" /> 
<circle cx="176.5553" cy="60.8400" r="0.7540" /> 
<circle cx="176.5553" cy="63.3800" r="0.7540" /> 
<circle cx="179.0953" cy="60.8400" r="0.7540" /> 
<circle cx="179.0953" cy="63.3800" r="0.7540" /> 
<circle cx="181.6353" cy="60.8400" r="0.7540" /> 
<circle cx="181.6353" cy="63.3800" r="0.7540" /> 
<circle cx="184.1753" cy="60.8400" r="0.7540" /> 
<circle cx="184.1753" cy="63.3800" r="0.7540" /> 
<circle cx="186.7153" cy="60.8400" r="0.7540" /> 
<circle cx="186.7153" cy="63.3800" r="0.7540" /> 
<circle cx="189.2553" cy="60.8400" r="0.7540" /> 
<circle cx="189.2553" cy="63.3800" r="0.7540" /> 
<circle cx="191.7953" cy="60.8400" r="0.7540" /> 
<circle cx="191.7953" cy="63.3800" r="0.7540" /> 
<circle cx="194.3353" cy="60.8400" r="0.7540" /> 
<circle cx="194.3353" cy="63.3800" r="0.7540" /> 
<circle cx="196.8753" cy="60.8400" r="0.7540" /> 
<circle cx="196.8753" cy="63.3800" r="0.7540" /> 
<circle cx="199.4153" cy="60.8400" r="0.7540" /> 
<circle cx="199.4153" cy="63.3800" r="0.7540" /> 
<circle cx="201.9553" cy="60.8400" r="0.7540" /> 
<circle cx="201.9553" cy="63.3800" r="0.7540" /> 
<circle cx="204.4953" cy="60.8400" r="0.7540" /> 
<circle cx="204.4953" cy="63.3800" r="0.7540" /> 
<circle cx="207.0353" cy="60.8400" r="0.7540" /> 
<circle cx="207.0353" cy="63.3800" r="0.7540" /> 
<circle cx="209.5753" cy="60.8400" r="0.7540" /> 
<circle cx="209.5753" cy="63.3800" r="0.7540" /> 
<circle cx="212.1153" cy="60.8400" r="0.7540" /> 
<circle cx="212.1153" cy="63.3800" r="0.7540" /> 
<circle cx="214.6553" cy="60.8400" r="0.7540" /> 
<circle cx="214.6553" cy="63.3800" r="0.7540" /> 
<circle cx="217.1953" cy="60.8400" r="0.7540" /> 
<circle cx="217.1953" cy="63.3800" r="0.7540" /> 
<circle cx="219.7353" cy="60.8400" r="0.7540" /> 
<circle cx="219.7353" cy="63.3800" r="0.7540" /> 
<circle cx="222.2753" cy="60.8400" r="0.7540" /> 
<path style="fill:#000000; fill-opacity:1.0000; stroke:none;fill-rule:evenodd;"
d="M 221.5213,64.1340
223.0293,64.1340
223.0293,62.6260
221.5213,62.6260
Z" /> 
<circle cx="133.3953" cy="121.8000" r="0.7540" /> 
<circle cx="133.3953" cy="124.3400" r="0.7540" /> 
<circle cx="135.9353" cy="121.8000" r="0.7540" /> 
<circle cx="135.9353" cy="124.3400" r="0.7540" /> 
<circle cx="138.4753" cy="121.8000" r="0.7540" /> 
<circle cx="138.4753" cy="124.3400" r="0.7540" /> 
<circle cx="141.0153" cy="121.8000" r="0.7540" /> 
<circle cx="141.0153" cy="124.3400" r="0.7540" /> 
<circle cx="143.5553" cy="121.8000" r="0.7540" /> 
<circle cx="143.5553" cy="124.3400" r="0.7540" /> 
<circle cx="146.0953" cy="121.8000" r="0.7540" /> 
<circle cx="146.0953" cy="124.3400" r="0.7540" /> 
<circle cx="148.6353" cy="121.8000" r="0.7540" /> 
<circle cx="148.6353" cy="124.3400" r="0.7540" /> 
<circle cx="151.1753" cy="121.8000" r="0.7540" /> 
<circle cx="151.1753" cy="124.3400" r="0.7540" /> 
<circle cx="153.7153" cy="121.8000" r="0.7540" /> 
<circle cx="153.7153" cy="124.3400" r="0.7540" /> 
<circle cx="156.2553" cy="121.8000" r="0.7540" /> 
<circle cx="156.2553" cy="124.3400" r="0.7540" /> 
<circle cx="158.7953" cy="121.8000" r="0.7540" /> 
<circle cx="158.7953" cy="124.3400" r="0.7540" /> 
<circle cx="161.3353" cy="121.8000" r="0.7540" /> 
<circle cx="161.3353" cy="124.3400" r="0.7540" /> 
<circle cx="163.8753" cy="121.8000" r="0.7540" /> 
<circle cx="163.8753" cy="124.3400" r="0.7540" /> 
<circle cx="166.4153" cy="121.8000" r="0.7540" /> 
<circle cx="166.4153" cy="124.3400" r="0.7540" /> 
<circle cx="168.9553" cy="121.8000" r="0.7540" /> 
<circle cx="168.9553" cy="124.3400" r="0.7540" /> 
<circle cx="171.4953" cy="121.8000" r="0.7540" /> 
<circle cx="171.4953" cy="124.3400" r="0.7540" /> 
<circle cx="174.0353" cy="121.8000" r="0.7540" /> 
<circle cx="174.0353" cy="124.3400" r="0.7540" /> 
<circle cx="176.5753" cy="121.8000" r="0.7540" /> 
<circle cx="176.5753" cy="124.3400" r="0.7540" /> 
<circle cx="179.1153" cy="121.8000" r="0.7540" /> 
<circle cx="179.1153" cy="124.3400" r="0.7540" /> 
<circle cx="181.6553" cy="121.8000" r="0.7540" /> 
<circle cx="181.6553" cy="124.3400" r="0.7540" /> 
<circle cx="184.1953" cy="121.8000" r="0.7540" /> 
<circle cx="184.1953" cy="124.3400" r="0.7540" /> 
<circle cx="186.7353" cy="121.8000" r="0.7540" /> 
<circle cx="186.7353" cy="124.3400" r="0.7540" /> 
<circle cx="189.2753" cy="121.8000" r="0.7540" /> 
<circle cx="189.2753" cy="124.3400" r="0.7540" /> 
<circle cx="191.8153" cy="121.8000" r="0.7540" /> 
<circle cx="191.8153" cy="124.3400" r="0.7540" /> 
<circle cx="194.3553" cy="121.8000" r="0.7540" /> 
<circle cx="194.3553" cy="124.3400" r="0.7540" /> 
<circle cx="196.8953" cy="121.8000" r="0.7540" /> 
<circle cx="196.8953" cy="124.3400" r="0.7540" /> 
<circle cx="199.4353" cy="121.8000" r="0.7540" /> 
<circle cx="199.4353" cy="124.3400" r="0.7540" /> 
<circle cx="201.9753" cy="121.8000" r="0.7540" /> 
<circle cx="201.9753" cy="124.3400" r="0.7540" /> 
<circle cx="204.5153" cy="121.8000" r="0.7540" /> 
<circle cx="204.5153" cy="124.3400" r="0.7540" /> 
<circle cx="207.0553" cy="121.8000" r="0.7540" /> 
<circle cx="207.0553" cy="124.3400" r="0.7540" /> 
<circle cx="209.5953" cy="121.8000" r="0.7540" /> 
<circle cx="209.5953" cy="124.3400" r="0.7540" /> 
<circle cx="212.1353" cy="121.8000" r="0.7540" /> 
<circle cx="212.1353" cy="124.3400" r="0.7540" /> 
<circle cx="214.6753" cy="121.8000" r="0.7540" /> 
<circle cx="214.6753" cy="124.3400" r="0.7540" /> 
<circle cx="217.2153" cy="121.8000" r="0.7540" /> 
<circle cx="217.2153" cy="124.3400" r="0.7540" /> 
<circle cx="219.7553" cy="121.8000" r="0.7540" /> 
<circle cx="219.7553" cy="124.3400" r="0.7540" /> 
<circle cx="222.2953" cy="121.8000" r="0.7540" /> 
<path style="fill:#000000; fill-opacity:1.0000; stroke:none;fill-rule:evenodd;"
d="M 221.5413,125.0940
223.0493,125.0940
223.0493,123.5860
221.5413,123.5860
Z" /> 
<circle cx="173.7522" cy="38.0000" r="3.7500" /> 
<circle cx="68.7333" cy="111.1000" r="0.8500" /> 
<circle cx="68.7333" cy="108.1000" r="0.8500" /> 
<circle cx="71.7333" cy="111.1000" r="0.8500" /> 
<circle cx="71.7333" cy="108.1000" r="0.8500" /> 
<circle cx="74.7333" cy="111.1000" r="0.8500" /> 
<circle cx="74.7333" cy="108.1000" r="0.8500" /> 
<circle cx="77.7333" cy="111.1000" r="0.8500" /> 
<circle cx="77.7333" cy="108.1000" r="0.8500" /> 
<circle cx="80.7333" cy="111.1000" r="0.8500" /> 
<circle cx="80.7333" cy="108.1000" r="0.8500" /> 
<circle cx="83.7333" cy="111.1000" r="0.8500" /> 
<circle cx="83.7333" cy="108.1000" r="0.8500" /> 
<circle cx="86.7333" cy="111.1000" r="0.8500" /> 
<circle cx="86.7333" cy="108.1000" r="0.8500" /> 
<circle cx="89.7333" cy="111.1000" r="0.8500" /> 
<circle cx="89.7333" cy="108.1000" r="0.8500" /> 
<circle cx="92.7333" cy="111.1000" r="0.8500" /> 
<circle cx="92.7333" cy="108.1000" r="0.8500" /> 
<circle cx="95.7333" cy="111.1000" r="0.8500" /> 
<circle cx="95.7333" cy="108.1000" r="0.8500" /> 
<circle cx="98.7333" cy="111.1000" r="0.8500" /> 
<circle cx="98.7333" cy="108.1000" r="0.8500" /> 
<circle cx="101.7333" cy="111.1000" r="0.8500" /> 
<circle cx="101.7333" cy="108.1000" r="0.8500" /> 
<circle cx="104.7333" cy="111.1000" r="0.8500" /> 
<circle cx="104.7333" cy="108.1000" r="0.8500" /> 
<circle cx="107.7333" cy="111.1000" r="0.8500" /> 
<path style="fill:#000000; fill-opacity:1.0000; stroke:none;fill-rule:evenodd;"
d="M 106.8833,108.9500
108.5833,108.9500
108.5833,107.2500
106.8833,107.2500
Z" /> 
</g> 
</svg>
